<mxfile host="app.diagrams.net" agent="Mozilla/5.0 (Macintosh; Intel Mac OS X 10_15_7) AppleWebKit/537.36 (KHTML, like Gecko) Chrome/136.0.0.0 Safari/537.36" version="27.0.9">
  <diagram name="第 1 页" id="trLkl6_jgInhVkjiiHsv">
    <mxGraphModel dx="1002" dy="605" grid="1" gridSize="10" guides="1" tooltips="1" connect="1" arrows="1" fold="1" page="1" pageScale="1" pageWidth="827" pageHeight="1169" math="0" shadow="0">
      <root>
        <mxCell id="0" />
        <mxCell id="1" parent="0" />
        <mxCell id="7VrtMbkjvd5Jq3ZaH19B-8" value="" style="edgeStyle=orthogonalEdgeStyle;rounded=0;orthogonalLoop=1;jettySize=auto;html=1;" edge="1" parent="1" source="7VrtMbkjvd5Jq3ZaH19B-1" target="7VrtMbkjvd5Jq3ZaH19B-7">
          <mxGeometry relative="1" as="geometry" />
        </mxCell>
        <mxCell id="7VrtMbkjvd5Jq3ZaH19B-1" value="&lt;font style=&quot;font-size: 18px;&quot;&gt;Exp&lt;/font&gt;" style="rounded=1;whiteSpace=wrap;html=1;fillColor=#dae8fc;strokeColor=#6c8ebf;" vertex="1" parent="1">
          <mxGeometry x="340" y="40" width="90" height="50" as="geometry" />
        </mxCell>
        <mxCell id="7VrtMbkjvd5Jq3ZaH19B-10" value="" style="edgeStyle=orthogonalEdgeStyle;rounded=0;orthogonalLoop=1;jettySize=auto;html=1;" edge="1" parent="1" source="7VrtMbkjvd5Jq3ZaH19B-2" target="7VrtMbkjvd5Jq3ZaH19B-9">
          <mxGeometry relative="1" as="geometry" />
        </mxCell>
        <mxCell id="7VrtMbkjvd5Jq3ZaH19B-2" value="&lt;font style=&quot;font-size: 18px;&quot;&gt;Exp&lt;/font&gt;" style="rounded=1;whiteSpace=wrap;html=1;fillColor=#dae8fc;strokeColor=#6c8ebf;" vertex="1" parent="1">
          <mxGeometry x="200" y="140" width="90" height="50" as="geometry" />
        </mxCell>
        <mxCell id="7VrtMbkjvd5Jq3ZaH19B-16" value="" style="edgeStyle=orthogonalEdgeStyle;rounded=0;orthogonalLoop=1;jettySize=auto;html=1;" edge="1" parent="1" source="7VrtMbkjvd5Jq3ZaH19B-3" target="7VrtMbkjvd5Jq3ZaH19B-15">
          <mxGeometry relative="1" as="geometry" />
        </mxCell>
        <mxCell id="7VrtMbkjvd5Jq3ZaH19B-3" value="&lt;font style=&quot;font-size: 18px;&quot;&gt;Exp&lt;/font&gt;" style="rounded=1;whiteSpace=wrap;html=1;fillColor=#dae8fc;strokeColor=#6c8ebf;" vertex="1" parent="1">
          <mxGeometry x="490" y="140" width="90" height="50" as="geometry" />
        </mxCell>
        <mxCell id="7VrtMbkjvd5Jq3ZaH19B-5" value="" style="endArrow=classic;html=1;rounded=0;entryX=1;entryY=0;entryDx=0;entryDy=0;exitX=0;exitY=1;exitDx=0;exitDy=0;" edge="1" parent="1" source="7VrtMbkjvd5Jq3ZaH19B-1" target="7VrtMbkjvd5Jq3ZaH19B-2">
          <mxGeometry width="50" height="50" relative="1" as="geometry">
            <mxPoint x="330" y="70" as="sourcePoint" />
            <mxPoint x="380" y="20" as="targetPoint" />
          </mxGeometry>
        </mxCell>
        <mxCell id="7VrtMbkjvd5Jq3ZaH19B-6" value="" style="endArrow=classic;html=1;rounded=0;entryX=0;entryY=0;entryDx=0;entryDy=0;exitX=1;exitY=1;exitDx=0;exitDy=0;" edge="1" parent="1" source="7VrtMbkjvd5Jq3ZaH19B-1" target="7VrtMbkjvd5Jq3ZaH19B-3">
          <mxGeometry width="50" height="50" relative="1" as="geometry">
            <mxPoint x="510" y="70" as="sourcePoint" />
            <mxPoint x="470" y="125" as="targetPoint" />
          </mxGeometry>
        </mxCell>
        <mxCell id="7VrtMbkjvd5Jq3ZaH19B-7" value="&lt;font style=&quot;font-size: 18px;&quot;&gt;+&lt;/font&gt;" style="whiteSpace=wrap;html=1;rounded=1;" vertex="1" parent="1">
          <mxGeometry x="367.5" y="130" width="35" height="25" as="geometry" />
        </mxCell>
        <mxCell id="7VrtMbkjvd5Jq3ZaH19B-9" value="&lt;font style=&quot;font-size: 18px;&quot;&gt;5&lt;/font&gt;" style="rounded=1;whiteSpace=wrap;html=1;" vertex="1" parent="1">
          <mxGeometry x="225" y="240" width="40" height="30" as="geometry" />
        </mxCell>
        <mxCell id="7VrtMbkjvd5Jq3ZaH19B-11" value="&lt;font style=&quot;font-size: 18px;&quot;&gt;(&lt;/font&gt;" style="rounded=1;whiteSpace=wrap;html=1;" vertex="1" parent="1">
          <mxGeometry x="420" y="210" width="40" height="30" as="geometry" />
        </mxCell>
        <mxCell id="7VrtMbkjvd5Jq3ZaH19B-12" value="&lt;font style=&quot;font-size: 18px;&quot;&gt;)&lt;/font&gt;" style="rounded=1;whiteSpace=wrap;html=1;" vertex="1" parent="1">
          <mxGeometry x="610" y="210" width="40" height="30" as="geometry" />
        </mxCell>
        <mxCell id="7VrtMbkjvd5Jq3ZaH19B-13" value="" style="endArrow=classic;html=1;rounded=0;exitX=1;exitY=1;exitDx=0;exitDy=0;entryX=0;entryY=0;entryDx=0;entryDy=0;" edge="1" parent="1" source="7VrtMbkjvd5Jq3ZaH19B-3" target="7VrtMbkjvd5Jq3ZaH19B-12">
          <mxGeometry width="50" height="50" relative="1" as="geometry">
            <mxPoint x="590" y="200" as="sourcePoint" />
            <mxPoint x="640" y="150" as="targetPoint" />
          </mxGeometry>
        </mxCell>
        <mxCell id="7VrtMbkjvd5Jq3ZaH19B-14" value="" style="endArrow=classic;html=1;rounded=0;exitX=0;exitY=1;exitDx=0;exitDy=0;entryX=1;entryY=0;entryDx=0;entryDy=0;" edge="1" parent="1" source="7VrtMbkjvd5Jq3ZaH19B-3" target="7VrtMbkjvd5Jq3ZaH19B-11">
          <mxGeometry width="50" height="50" relative="1" as="geometry">
            <mxPoint x="500" y="290" as="sourcePoint" />
            <mxPoint x="530" y="310" as="targetPoint" />
          </mxGeometry>
        </mxCell>
        <mxCell id="7VrtMbkjvd5Jq3ZaH19B-23" value="" style="edgeStyle=orthogonalEdgeStyle;rounded=0;orthogonalLoop=1;jettySize=auto;html=1;" edge="1" parent="1" source="7VrtMbkjvd5Jq3ZaH19B-15" target="7VrtMbkjvd5Jq3ZaH19B-22">
          <mxGeometry relative="1" as="geometry" />
        </mxCell>
        <mxCell id="7VrtMbkjvd5Jq3ZaH19B-15" value="&lt;font style=&quot;font-size: 18px;&quot;&gt;Exp&lt;/font&gt;" style="rounded=1;whiteSpace=wrap;html=1;fillColor=#dae8fc;strokeColor=#6c8ebf;" vertex="1" parent="1">
          <mxGeometry x="490" y="230" width="90" height="50" as="geometry" />
        </mxCell>
        <mxCell id="7VrtMbkjvd5Jq3ZaH19B-18" value="&lt;font style=&quot;font-size: 18px;&quot;&gt;Exp&lt;/font&gt;" style="rounded=1;whiteSpace=wrap;html=1;fillColor=#dae8fc;strokeColor=#6c8ebf;" vertex="1" parent="1">
          <mxGeometry x="390" y="300" width="90" height="50" as="geometry" />
        </mxCell>
        <mxCell id="7VrtMbkjvd5Jq3ZaH19B-19" value="&lt;font style=&quot;font-size: 18px;&quot;&gt;Exp&lt;/font&gt;" style="rounded=1;whiteSpace=wrap;html=1;fillColor=#dae8fc;strokeColor=#6c8ebf;" vertex="1" parent="1">
          <mxGeometry x="610" y="300" width="90" height="50" as="geometry" />
        </mxCell>
        <mxCell id="7VrtMbkjvd5Jq3ZaH19B-20" value="" style="endArrow=classic;html=1;rounded=0;exitX=0;exitY=1;exitDx=0;exitDy=0;entryX=1;entryY=0;entryDx=0;entryDy=0;" edge="1" parent="1" source="7VrtMbkjvd5Jq3ZaH19B-15" target="7VrtMbkjvd5Jq3ZaH19B-18">
          <mxGeometry width="50" height="50" relative="1" as="geometry">
            <mxPoint x="500" y="280" as="sourcePoint" />
            <mxPoint x="490" y="300" as="targetPoint" />
          </mxGeometry>
        </mxCell>
        <mxCell id="7VrtMbkjvd5Jq3ZaH19B-21" value="" style="endArrow=classic;html=1;rounded=0;exitX=1;exitY=0.75;exitDx=0;exitDy=0;entryX=0;entryY=0;entryDx=0;entryDy=0;" edge="1" parent="1" source="7VrtMbkjvd5Jq3ZaH19B-15" target="7VrtMbkjvd5Jq3ZaH19B-19">
          <mxGeometry width="50" height="50" relative="1" as="geometry">
            <mxPoint x="600" y="320" as="sourcePoint" />
            <mxPoint x="570" y="340" as="targetPoint" />
          </mxGeometry>
        </mxCell>
        <mxCell id="7VrtMbkjvd5Jq3ZaH19B-22" value="&lt;font style=&quot;font-size: 18px;&quot;&gt;*&lt;/font&gt;" style="whiteSpace=wrap;html=1;rounded=1;" vertex="1" parent="1">
          <mxGeometry x="517.5" y="310" width="35" height="25" as="geometry" />
        </mxCell>
        <mxCell id="7VrtMbkjvd5Jq3ZaH19B-26" value="" style="edgeStyle=orthogonalEdgeStyle;rounded=0;orthogonalLoop=1;jettySize=auto;html=1;exitX=0.5;exitY=1;exitDx=0;exitDy=0;" edge="1" parent="1" target="7VrtMbkjvd5Jq3ZaH19B-27" source="7VrtMbkjvd5Jq3ZaH19B-18">
          <mxGeometry relative="1" as="geometry">
            <mxPoint x="435" y="335" as="sourcePoint" />
          </mxGeometry>
        </mxCell>
        <mxCell id="7VrtMbkjvd5Jq3ZaH19B-27" value="&lt;font style=&quot;font-size: 18px;&quot;&gt;6&lt;/font&gt;" style="rounded=1;whiteSpace=wrap;html=1;" vertex="1" parent="1">
          <mxGeometry x="415" y="385" width="40" height="30" as="geometry" />
        </mxCell>
        <mxCell id="7VrtMbkjvd5Jq3ZaH19B-28" value="" style="edgeStyle=orthogonalEdgeStyle;rounded=0;orthogonalLoop=1;jettySize=auto;html=1;" edge="1" parent="1" target="7VrtMbkjvd5Jq3ZaH19B-29">
          <mxGeometry relative="1" as="geometry">
            <mxPoint x="655" y="350" as="sourcePoint" />
          </mxGeometry>
        </mxCell>
        <mxCell id="7VrtMbkjvd5Jq3ZaH19B-29" value="&lt;font style=&quot;font-size: 18px;&quot;&gt;12&lt;/font&gt;" style="rounded=1;whiteSpace=wrap;html=1;" vertex="1" parent="1">
          <mxGeometry x="635" y="390" width="40" height="30" as="geometry" />
        </mxCell>
      </root>
    </mxGraphModel>
  </diagram>
</mxfile>
